<mxfile host="Electron" modified="2023-12-24T02:25:50.952Z" agent="Mozilla/5.0 (Macintosh; Intel Mac OS X 10_15_7) AppleWebKit/537.36 (KHTML, like Gecko) draw.io/22.1.11 Chrome/114.0.5735.289 Electron/25.9.8 Safari/537.36" etag="Ryl1wx5Kl9wRLwh5-oTC" version="22.1.11" type="device">
  <diagram id="C5RBs43oDa-KdzZeNtuy" name="Page-1">
    <mxGraphModel dx="954" dy="594" grid="1" gridSize="10" guides="1" tooltips="1" connect="1" arrows="1" fold="1" page="1" pageScale="1" pageWidth="827" pageHeight="1169" math="0" shadow="0">
      <root>
        <mxCell id="WIyWlLk6GJQsqaUBKTNV-0" />
        <mxCell id="WIyWlLk6GJQsqaUBKTNV-1" parent="WIyWlLk6GJQsqaUBKTNV-0" />
        <mxCell id="w0d315_TlsWlhZmxJdoT-7" style="edgeStyle=orthogonalEdgeStyle;rounded=0;orthogonalLoop=1;jettySize=auto;html=1;" parent="WIyWlLk6GJQsqaUBKTNV-1" source="w0d315_TlsWlhZmxJdoT-0" target="w0d315_TlsWlhZmxJdoT-5" edge="1">
          <mxGeometry relative="1" as="geometry" />
        </mxCell>
        <mxCell id="w0d315_TlsWlhZmxJdoT-8" style="edgeStyle=orthogonalEdgeStyle;rounded=0;orthogonalLoop=1;jettySize=auto;html=1;" parent="WIyWlLk6GJQsqaUBKTNV-1" source="w0d315_TlsWlhZmxJdoT-0" target="w0d315_TlsWlhZmxJdoT-6" edge="1">
          <mxGeometry relative="1" as="geometry" />
        </mxCell>
        <mxCell id="w0d315_TlsWlhZmxJdoT-0" value="Prediction" style="rounded=0;whiteSpace=wrap;html=1;" parent="WIyWlLk6GJQsqaUBKTNV-1" vertex="1">
          <mxGeometry x="240" y="200" width="120" height="60" as="geometry" />
        </mxCell>
        <mxCell id="w0d315_TlsWlhZmxJdoT-2" value="" style="edgeStyle=orthogonalEdgeStyle;rounded=0;orthogonalLoop=1;jettySize=auto;html=1;" parent="WIyWlLk6GJQsqaUBKTNV-1" source="w0d315_TlsWlhZmxJdoT-1" target="w0d315_TlsWlhZmxJdoT-0" edge="1">
          <mxGeometry relative="1" as="geometry" />
        </mxCell>
        <mxCell id="w0d315_TlsWlhZmxJdoT-1" value="1D OHLC&amp;nbsp;&lt;br&gt;(T-2 years)" style="shape=process;whiteSpace=wrap;html=1;backgroundOutline=1;" parent="WIyWlLk6GJQsqaUBKTNV-1" vertex="1">
          <mxGeometry x="240" y="90" width="120" height="60" as="geometry" />
        </mxCell>
        <mxCell id="w0d315_TlsWlhZmxJdoT-4" value="" style="edgeStyle=orthogonalEdgeStyle;rounded=0;orthogonalLoop=1;jettySize=auto;html=1;" parent="WIyWlLk6GJQsqaUBKTNV-1" source="w0d315_TlsWlhZmxJdoT-3" target="w0d315_TlsWlhZmxJdoT-0" edge="1">
          <mxGeometry relative="1" as="geometry" />
        </mxCell>
        <mxCell id="w0d315_TlsWlhZmxJdoT-3" value="Model" style="shape=document;whiteSpace=wrap;html=1;boundedLbl=1;" parent="WIyWlLk6GJQsqaUBKTNV-1" vertex="1">
          <mxGeometry x="60" y="190" width="120" height="80" as="geometry" />
        </mxCell>
        <mxCell id="w0d315_TlsWlhZmxJdoT-11" value="" style="edgeStyle=orthogonalEdgeStyle;rounded=0;orthogonalLoop=1;jettySize=auto;html=1;" parent="WIyWlLk6GJQsqaUBKTNV-1" source="w0d315_TlsWlhZmxJdoT-5" target="w0d315_TlsWlhZmxJdoT-9" edge="1">
          <mxGeometry relative="1" as="geometry" />
        </mxCell>
        <mxCell id="w0d315_TlsWlhZmxJdoT-5" value="Pred" style="shape=tape;whiteSpace=wrap;html=1;" parent="WIyWlLk6GJQsqaUBKTNV-1" vertex="1">
          <mxGeometry x="240" y="310" width="120" height="100" as="geometry" />
        </mxCell>
        <mxCell id="w0d315_TlsWlhZmxJdoT-44" value="" style="edgeStyle=orthogonalEdgeStyle;rounded=0;orthogonalLoop=1;jettySize=auto;html=1;" parent="WIyWlLk6GJQsqaUBKTNV-1" source="w0d315_TlsWlhZmxJdoT-6" target="w0d315_TlsWlhZmxJdoT-43" edge="1">
          <mxGeometry relative="1" as="geometry" />
        </mxCell>
        <mxCell id="w0d315_TlsWlhZmxJdoT-6" value="Next Close" style="shape=tape;whiteSpace=wrap;html=1;" parent="WIyWlLk6GJQsqaUBKTNV-1" vertex="1">
          <mxGeometry x="650" y="620" width="120" height="100" as="geometry" />
        </mxCell>
        <mxCell id="w0d315_TlsWlhZmxJdoT-19" style="edgeStyle=orthogonalEdgeStyle;rounded=0;orthogonalLoop=1;jettySize=auto;html=1;" parent="WIyWlLk6GJQsqaUBKTNV-1" source="w0d315_TlsWlhZmxJdoT-9" target="w0d315_TlsWlhZmxJdoT-14" edge="1">
          <mxGeometry relative="1" as="geometry" />
        </mxCell>
        <mxCell id="w0d315_TlsWlhZmxJdoT-9" value="Base Accuracy&lt;br&gt;Backtesting" style="rounded=0;whiteSpace=wrap;html=1;" parent="WIyWlLk6GJQsqaUBKTNV-1" vertex="1">
          <mxGeometry x="240" y="470" width="120" height="60" as="geometry" />
        </mxCell>
        <mxCell id="w0d315_TlsWlhZmxJdoT-10" value="For the BT Period" style="text;html=1;strokeColor=none;fillColor=none;align=center;verticalAlign=middle;whiteSpace=wrap;rounded=0;" parent="WIyWlLk6GJQsqaUBKTNV-1" vertex="1">
          <mxGeometry x="150" y="360" width="60" height="30" as="geometry" />
        </mxCell>
        <mxCell id="w0d315_TlsWlhZmxJdoT-13" value="" style="edgeStyle=orthogonalEdgeStyle;rounded=0;orthogonalLoop=1;jettySize=auto;html=1;" parent="WIyWlLk6GJQsqaUBKTNV-1" source="w0d315_TlsWlhZmxJdoT-12" target="w0d315_TlsWlhZmxJdoT-9" edge="1">
          <mxGeometry relative="1" as="geometry" />
        </mxCell>
        <mxCell id="w0d315_TlsWlhZmxJdoT-12" value="1 OHLC&amp;nbsp;&lt;br&gt;(T-60 days)" style="shape=process;whiteSpace=wrap;html=1;backgroundOutline=1;" parent="WIyWlLk6GJQsqaUBKTNV-1" vertex="1">
          <mxGeometry x="40" y="470" width="120" height="60" as="geometry" />
        </mxCell>
        <mxCell id="w0d315_TlsWlhZmxJdoT-22" style="edgeStyle=orthogonalEdgeStyle;rounded=0;orthogonalLoop=1;jettySize=auto;html=1;" parent="WIyWlLk6GJQsqaUBKTNV-1" source="w0d315_TlsWlhZmxJdoT-14" target="w0d315_TlsWlhZmxJdoT-21" edge="1">
          <mxGeometry relative="1" as="geometry" />
        </mxCell>
        <mxCell id="w0d315_TlsWlhZmxJdoT-60" style="edgeStyle=orthogonalEdgeStyle;rounded=0;orthogonalLoop=1;jettySize=auto;html=1;" parent="WIyWlLk6GJQsqaUBKTNV-1" source="w0d315_TlsWlhZmxJdoT-14" target="w0d315_TlsWlhZmxJdoT-59" edge="1">
          <mxGeometry relative="1" as="geometry" />
        </mxCell>
        <mxCell id="w0d315_TlsWlhZmxJdoT-14" value="Output" style="swimlane;fontStyle=0;childLayout=stackLayout;horizontal=1;startSize=30;horizontalStack=0;resizeParent=1;resizeParentMax=0;resizeLast=0;collapsible=1;marginBottom=0;whiteSpace=wrap;html=1;" parent="WIyWlLk6GJQsqaUBKTNV-1" vertex="1">
          <mxGeometry x="230" y="580" width="140" height="150" as="geometry" />
        </mxCell>
        <mxCell id="w0d315_TlsWlhZmxJdoT-15" value="Entry Pct" style="text;strokeColor=none;fillColor=none;align=left;verticalAlign=middle;spacingLeft=4;spacingRight=4;overflow=hidden;points=[[0,0.5],[1,0.5]];portConstraint=eastwest;rotatable=0;whiteSpace=wrap;html=1;" parent="w0d315_TlsWlhZmxJdoT-14" vertex="1">
          <mxGeometry y="30" width="140" height="30" as="geometry" />
        </mxCell>
        <mxCell id="w0d315_TlsWlhZmxJdoT-16" value="Accuracy Pct" style="text;strokeColor=none;fillColor=none;align=left;verticalAlign=middle;spacingLeft=4;spacingRight=4;overflow=hidden;points=[[0,0.5],[1,0.5]];portConstraint=eastwest;rotatable=0;whiteSpace=wrap;html=1;" parent="w0d315_TlsWlhZmxJdoT-14" vertex="1">
          <mxGeometry y="60" width="140" height="30" as="geometry" />
        </mxCell>
        <mxCell id="w0d315_TlsWlhZmxJdoT-17" value="Profit Pct" style="text;strokeColor=none;fillColor=none;align=left;verticalAlign=middle;spacingLeft=4;spacingRight=4;overflow=hidden;points=[[0,0.5],[1,0.5]];portConstraint=eastwest;rotatable=0;whiteSpace=wrap;html=1;" parent="w0d315_TlsWlhZmxJdoT-14" vertex="1">
          <mxGeometry y="90" width="140" height="30" as="geometry" />
        </mxCell>
        <mxCell id="w0d315_TlsWlhZmxJdoT-20" value="Avg Reward Factor" style="text;strokeColor=none;fillColor=none;align=left;verticalAlign=middle;spacingLeft=4;spacingRight=4;overflow=hidden;points=[[0,0.5],[1,0.5]];portConstraint=eastwest;rotatable=0;whiteSpace=wrap;html=1;" parent="w0d315_TlsWlhZmxJdoT-14" vertex="1">
          <mxGeometry y="120" width="140" height="30" as="geometry" />
        </mxCell>
        <mxCell id="w0d315_TlsWlhZmxJdoT-34" value="" style="edgeStyle=orthogonalEdgeStyle;rounded=0;orthogonalLoop=1;jettySize=auto;html=1;entryX=0.5;entryY=0;entryDx=0;entryDy=0;" parent="WIyWlLk6GJQsqaUBKTNV-1" source="w0d315_TlsWlhZmxJdoT-21" target="w0d315_TlsWlhZmxJdoT-29" edge="1">
          <mxGeometry relative="1" as="geometry" />
        </mxCell>
        <mxCell id="w0d315_TlsWlhZmxJdoT-21" value="RF Accuracy&lt;br&gt;Backtesting" style="rounded=0;whiteSpace=wrap;html=1;" parent="WIyWlLk6GJQsqaUBKTNV-1" vertex="1">
          <mxGeometry x="240" y="770" width="120" height="60" as="geometry" />
        </mxCell>
        <mxCell id="Gwh4HUOgR5xF0NuazVei-0" style="edgeStyle=orthogonalEdgeStyle;rounded=0;orthogonalLoop=1;jettySize=auto;html=1;entryX=1;entryY=0.5;entryDx=0;entryDy=0;" edge="1" parent="WIyWlLk6GJQsqaUBKTNV-1" source="w0d315_TlsWlhZmxJdoT-24" target="w0d315_TlsWlhZmxJdoT-9">
          <mxGeometry relative="1" as="geometry" />
        </mxCell>
        <mxCell id="w0d315_TlsWlhZmxJdoT-24" value="Default Risk Params&lt;br&gt;(RF, RRR, T-SL)" style="shape=document;whiteSpace=wrap;html=1;boundedLbl=1;fillColor=#d80073;fontColor=#ffffff;strokeColor=#A50040;" parent="WIyWlLk6GJQsqaUBKTNV-1" vertex="1">
          <mxGeometry x="420" y="460" width="120" height="80" as="geometry" />
        </mxCell>
        <mxCell id="w0d315_TlsWlhZmxJdoT-38" style="edgeStyle=orthogonalEdgeStyle;rounded=0;orthogonalLoop=1;jettySize=auto;html=1;" parent="WIyWlLk6GJQsqaUBKTNV-1" source="w0d315_TlsWlhZmxJdoT-29" target="w0d315_TlsWlhZmxJdoT-37" edge="1">
          <mxGeometry relative="1" as="geometry" />
        </mxCell>
        <mxCell id="w0d315_TlsWlhZmxJdoT-40" style="edgeStyle=orthogonalEdgeStyle;rounded=0;orthogonalLoop=1;jettySize=auto;html=1;" parent="WIyWlLk6GJQsqaUBKTNV-1" source="w0d315_TlsWlhZmxJdoT-29" target="w0d315_TlsWlhZmxJdoT-35" edge="1">
          <mxGeometry relative="1" as="geometry" />
        </mxCell>
        <mxCell id="Gwh4HUOgR5xF0NuazVei-2" value="" style="edgeStyle=orthogonalEdgeStyle;rounded=0;orthogonalLoop=1;jettySize=auto;html=1;" edge="1" parent="WIyWlLk6GJQsqaUBKTNV-1" source="w0d315_TlsWlhZmxJdoT-29" target="w0d315_TlsWlhZmxJdoT-51">
          <mxGeometry relative="1" as="geometry" />
        </mxCell>
        <mxCell id="Gwh4HUOgR5xF0NuazVei-3" style="edgeStyle=orthogonalEdgeStyle;rounded=0;orthogonalLoop=1;jettySize=auto;html=1;entryX=0;entryY=0.5;entryDx=0;entryDy=0;" edge="1" parent="WIyWlLk6GJQsqaUBKTNV-1" source="w0d315_TlsWlhZmxJdoT-29" target="Gwh4HUOgR5xF0NuazVei-1">
          <mxGeometry relative="1" as="geometry" />
        </mxCell>
        <mxCell id="w0d315_TlsWlhZmxJdoT-29" value="RF Output" style="swimlane;fontStyle=0;childLayout=stackLayout;horizontal=1;startSize=30;horizontalStack=0;resizeParent=1;resizeParentMax=0;resizeLast=0;collapsible=1;marginBottom=0;whiteSpace=wrap;html=1;" parent="WIyWlLk6GJQsqaUBKTNV-1" vertex="1">
          <mxGeometry x="230" y="885" width="140" height="120" as="geometry" />
        </mxCell>
        <mxCell id="w0d315_TlsWlhZmxJdoT-30" value="Entry Pct" style="text;strokeColor=none;fillColor=none;align=left;verticalAlign=middle;spacingLeft=4;spacingRight=4;overflow=hidden;points=[[0,0.5],[1,0.5]];portConstraint=eastwest;rotatable=0;whiteSpace=wrap;html=1;" parent="w0d315_TlsWlhZmxJdoT-29" vertex="1">
          <mxGeometry y="30" width="140" height="30" as="geometry" />
        </mxCell>
        <mxCell id="w0d315_TlsWlhZmxJdoT-31" value="Accuracy Pct" style="text;strokeColor=none;fillColor=none;align=left;verticalAlign=middle;spacingLeft=4;spacingRight=4;overflow=hidden;points=[[0,0.5],[1,0.5]];portConstraint=eastwest;rotatable=0;whiteSpace=wrap;html=1;" parent="w0d315_TlsWlhZmxJdoT-29" vertex="1">
          <mxGeometry y="60" width="140" height="30" as="geometry" />
        </mxCell>
        <mxCell id="w0d315_TlsWlhZmxJdoT-32" value="Profit Pct" style="text;strokeColor=none;fillColor=none;align=left;verticalAlign=middle;spacingLeft=4;spacingRight=4;overflow=hidden;points=[[0,0.5],[1,0.5]];portConstraint=eastwest;rotatable=0;whiteSpace=wrap;html=1;" parent="w0d315_TlsWlhZmxJdoT-29" vertex="1">
          <mxGeometry y="90" width="140" height="30" as="geometry" />
        </mxCell>
        <mxCell id="w0d315_TlsWlhZmxJdoT-39" style="edgeStyle=orthogonalEdgeStyle;rounded=0;orthogonalLoop=1;jettySize=auto;html=1;entryX=1;entryY=0.5;entryDx=0;entryDy=0;" parent="WIyWlLk6GJQsqaUBKTNV-1" source="w0d315_TlsWlhZmxJdoT-35" target="w0d315_TlsWlhZmxJdoT-37" edge="1">
          <mxGeometry relative="1" as="geometry">
            <Array as="points">
              <mxPoint x="480" y="1090" />
            </Array>
          </mxGeometry>
        </mxCell>
        <mxCell id="w0d315_TlsWlhZmxJdoT-35" value="RF Accuracy" style="shape=document;whiteSpace=wrap;html=1;boundedLbl=1;" parent="WIyWlLk6GJQsqaUBKTNV-1" vertex="1">
          <mxGeometry x="420" y="905" width="120" height="80" as="geometry" />
        </mxCell>
        <mxCell id="w0d315_TlsWlhZmxJdoT-55" value="" style="edgeStyle=orthogonalEdgeStyle;rounded=0;orthogonalLoop=1;jettySize=auto;html=1;" parent="WIyWlLk6GJQsqaUBKTNV-1" source="w0d315_TlsWlhZmxJdoT-37" target="w0d315_TlsWlhZmxJdoT-54" edge="1">
          <mxGeometry relative="1" as="geometry" />
        </mxCell>
        <mxCell id="w0d315_TlsWlhZmxJdoT-37" value="Weighted &lt;br&gt;Backtest" style="rounded=0;whiteSpace=wrap;html=1;" parent="WIyWlLk6GJQsqaUBKTNV-1" vertex="1">
          <mxGeometry x="240" y="1060" width="120" height="60" as="geometry" />
        </mxCell>
        <mxCell id="w0d315_TlsWlhZmxJdoT-50" style="edgeStyle=orthogonalEdgeStyle;rounded=0;orthogonalLoop=1;jettySize=auto;html=1;" parent="WIyWlLk6GJQsqaUBKTNV-1" source="w0d315_TlsWlhZmxJdoT-43" target="w0d315_TlsWlhZmxJdoT-47" edge="1">
          <mxGeometry relative="1" as="geometry" />
        </mxCell>
        <mxCell id="w0d315_TlsWlhZmxJdoT-43" value="Combiner" style="rounded=0;whiteSpace=wrap;html=1;" parent="WIyWlLk6GJQsqaUBKTNV-1" vertex="1">
          <mxGeometry x="650" y="770" width="120" height="60" as="geometry" />
        </mxCell>
        <mxCell id="w0d315_TlsWlhZmxJdoT-47" value="Entries" style="rounded=0;whiteSpace=wrap;html=1;" parent="WIyWlLk6GJQsqaUBKTNV-1" vertex="1">
          <mxGeometry x="650" y="915" width="120" height="60" as="geometry" />
        </mxCell>
        <mxCell id="w0d315_TlsWlhZmxJdoT-63" style="edgeStyle=orthogonalEdgeStyle;rounded=0;orthogonalLoop=1;jettySize=auto;html=1;entryX=0;entryY=0.5;entryDx=0;entryDy=0;" parent="WIyWlLk6GJQsqaUBKTNV-1" source="w0d315_TlsWlhZmxJdoT-51" target="w0d315_TlsWlhZmxJdoT-37" edge="1">
          <mxGeometry relative="1" as="geometry">
            <Array as="points">
              <mxPoint x="100" y="1090" />
            </Array>
          </mxGeometry>
        </mxCell>
        <mxCell id="w0d315_TlsWlhZmxJdoT-51" value="RF Portfolio &lt;br&gt;Trades" style="shape=document;whiteSpace=wrap;html=1;boundedLbl=1;" parent="WIyWlLk6GJQsqaUBKTNV-1" vertex="1">
          <mxGeometry x="40" y="905" width="120" height="80" as="geometry" />
        </mxCell>
        <mxCell id="w0d315_TlsWlhZmxJdoT-54" value="Weighted BT&amp;nbsp;&lt;br&gt;Trades" style="shape=document;whiteSpace=wrap;html=1;boundedLbl=1;" parent="WIyWlLk6GJQsqaUBKTNV-1" vertex="1">
          <mxGeometry x="240" y="1180" width="120" height="80" as="geometry" />
        </mxCell>
        <mxCell id="w0d315_TlsWlhZmxJdoT-56" value="Saturday&amp;nbsp;" style="text;html=1;align=center;verticalAlign=middle;resizable=0;points=[];autosize=1;strokeColor=none;fillColor=none;" parent="WIyWlLk6GJQsqaUBKTNV-1" vertex="1">
          <mxGeometry x="315" y="438" width="70" height="30" as="geometry" />
        </mxCell>
        <mxCell id="w0d315_TlsWlhZmxJdoT-57" value="Saturday&amp;nbsp;" style="text;html=1;align=center;verticalAlign=middle;resizable=0;points=[];autosize=1;strokeColor=none;fillColor=none;" parent="WIyWlLk6GJQsqaUBKTNV-1" vertex="1">
          <mxGeometry x="320" y="740" width="70" height="30" as="geometry" />
        </mxCell>
        <mxCell id="w0d315_TlsWlhZmxJdoT-58" value="Saturday&amp;nbsp;" style="text;html=1;align=center;verticalAlign=middle;resizable=0;points=[];autosize=1;strokeColor=none;fillColor=none;" parent="WIyWlLk6GJQsqaUBKTNV-1" vertex="1">
          <mxGeometry x="315" y="1030" width="70" height="30" as="geometry" />
        </mxCell>
        <mxCell id="w0d315_TlsWlhZmxJdoT-61" style="edgeStyle=orthogonalEdgeStyle;rounded=0;orthogonalLoop=1;jettySize=auto;html=1;entryX=0;entryY=0.5;entryDx=0;entryDy=0;" parent="WIyWlLk6GJQsqaUBKTNV-1" source="w0d315_TlsWlhZmxJdoT-59" target="w0d315_TlsWlhZmxJdoT-21" edge="1">
          <mxGeometry relative="1" as="geometry">
            <Array as="points">
              <mxPoint x="100" y="800" />
            </Array>
          </mxGeometry>
        </mxCell>
        <mxCell id="w0d315_TlsWlhZmxJdoT-62" value="RF Primary" style="edgeLabel;html=1;align=center;verticalAlign=middle;resizable=0;points=[];" parent="w0d315_TlsWlhZmxJdoT-61" vertex="1" connectable="0">
          <mxGeometry x="0.4207" y="-2" relative="1" as="geometry">
            <mxPoint as="offset" />
          </mxGeometry>
        </mxCell>
        <mxCell id="w0d315_TlsWlhZmxJdoT-59" value="Base Accuracy" style="shape=document;whiteSpace=wrap;html=1;boundedLbl=1;" parent="WIyWlLk6GJQsqaUBKTNV-1" vertex="1">
          <mxGeometry x="40" y="615" width="120" height="80" as="geometry" />
        </mxCell>
        <mxCell id="Gwh4HUOgR5xF0NuazVei-4" style="edgeStyle=orthogonalEdgeStyle;rounded=0;orthogonalLoop=1;jettySize=auto;html=1;entryX=0;entryY=0.5;entryDx=0;entryDy=0;" edge="1" parent="WIyWlLk6GJQsqaUBKTNV-1" source="Gwh4HUOgR5xF0NuazVei-1" target="w0d315_TlsWlhZmxJdoT-43">
          <mxGeometry relative="1" as="geometry" />
        </mxCell>
        <mxCell id="Gwh4HUOgR5xF0NuazVei-1" value="Caliberated Risk Params&lt;br&gt;(RF, RRR, T-SL)" style="shape=document;whiteSpace=wrap;html=1;boundedLbl=1;fillColor=#d80073;fontColor=#ffffff;strokeColor=#A50040;" vertex="1" parent="WIyWlLk6GJQsqaUBKTNV-1">
          <mxGeometry x="420" y="760" width="120" height="80" as="geometry" />
        </mxCell>
      </root>
    </mxGraphModel>
  </diagram>
</mxfile>
